<?xml version="1.0" encoding="utf-8"?>
<!-- Generator: Adobe Illustrator 20.1.0, SVG Export Plug-In . SVG Version: 6.00 Build 0)  -->
<svg version="1.1" id="Layer_1" xmlns="http://www.w3.org/2000/svg" xmlns:xlink="http://www.w3.org/1999/xlink" x="0px" y="0px"
	 viewBox="0 0 1810.4 540" style="enable-background:new 0 0 1810.4 540;" xml:space="preserve">
<style type="text/css">
	.st0{fill:#1C1E2C;}
	.st1{fill:#03FC96;}
</style>
<g>
	<path class="st0" d="M187.6,210v44.5c0,11.2-2.5,21-7.6,29.3c-5.1,8.3-11.8,15.1-20.1,20.6c-8.3,5.5-17.9,9.6-28.6,12.4
		c-10.7,2.8-21.6,4.2-32.6,4.2s-21.9-1.4-32.6-4.2c-10.7-2.8-20.3-7-28.6-12.5c-8.3-5.5-15-12.4-20.1-20.7
		c-5.1-8.3-7.6-18.1-7.6-29.4V76.2c0-11.3,2.5-21.1,7.6-29.4c5.1-8.3,11.8-15.3,20.1-21c8.3-5.6,17.8-9.9,28.6-12.7
		c10.7-2.8,21.6-4.2,32.6-4.2s21.9,1.4,32.6,4.2c10.7,2.8,20.2,7.1,28.6,12.7c8.3,5.6,15,12.6,20.1,21c5.1,8.3,7.6,18.1,7.6,29.4
		v44.5h-59.3V91c0-7.3-3.1-12.8-9.3-16.5c-6.2-3.7-13-5.5-20.3-5.5c-7.3,0-14.1,1.8-20.3,5.5c-6.2,3.7-9.3,9.2-9.3,16.5v148.1
		c0,7.6,3.1,13.3,9.3,17c6.2,3.7,13,5.5,20.3,5.5c7.3,0,14.1-1.8,20.3-5.5c6.2-3.7,9.3-9.3,9.3-16.9V210H187.6z"/>
	<path class="st0" d="M360.4,312.9l-66-118.1h-5.1v118.1H230V17h118.5c8.7,0,16.8,1.4,24.1,4.2c7.3,2.8,13.6,6.8,18.8,12.1
		c5.2,5.2,9.2,11.5,12.1,18.8c2.8,7.3,4.2,15.4,4.2,24.1v58.4c0,16.4-4.7,30-14.2,40.9c-9.5,10.9-21.9,17.1-37.5,18.8l66.5,118.5
		H360.4z M289.2,76.2v59.3h29.2c11,0,18.8-2.3,23.3-7c4.5-4.7,6.8-12.3,6.8-23.1c0-10.7-2.3-18.3-6.8-22.6
		c-4.5-4.4-12.3-6.6-23.3-6.6H289.2z"/>
	<path class="st0" d="M509.4,76.2v59.3h88.5v59.3h-88.5V254h118.5v59.3H509.4h-59.3V17h177.8v59.3H509.4z"/>
	<path class="st0" d="M778.6,254h-38.9l-10.2,59.3h-59.3L721,17H738h59.3l50.8,296.4h-59.3L778.6,254z M768.5,194.8l-9.3-54.6
		l-9.3,54.6H768.5z"/>
	<path class="st0" d="M1038.6,76.2h-59.3v237.1H920V76.2h-59.3V17h177.8V76.2z"/>
	<path class="st0" d="M1140.2,17v296.4h-59.3V17H1140.2z"/>
	<path class="st0" d="M1360.3,17l-50.8,296.4h-16.9h-59.3L1182.5,17h59.3l29.6,172.7L1301,17H1360.3z"/>
	<path class="st0" d="M1461.9,76.2v59.3h88.5v59.3h-88.5V254h118.5v59.3h-118.5h-59.3V17h177.8v59.3H1461.9z"/>
	<path class="st0" d="M1732,59.7c-6.2-3.7-13-5.5-20.3-5.5c-7.3,0-14.1,1.8-20.3,5.5c-6.2,3.7-9.3,9.2-9.3,16.5v44.5
		c0,4.5,2.9,8,8.7,10.6c5.8,2.5,13.1,5.1,22,7.6s18.4,5.4,28.6,8.7c10.2,3.2,19.7,7.6,28.6,12.9c8.9,5.4,16.2,12.2,22,20.5
		c5.8,8.3,8.7,18.8,8.7,31.5V254c0,11-2.5,20.7-7.6,29.2c-5.1,8.5-11.8,15.5-20.1,21c-8.3,5.5-17.9,9.7-28.6,12.5
		c-10.7,2.8-21.6,4.2-32.6,4.2c-11,0-21.9-1.4-32.6-4.2c-10.7-2.8-20.3-6.9-28.6-12.4c-8.3-5.5-15-12.4-20.1-20.8
		c-5.1-8.4-7.6-18.1-7.6-29.1V210h59.3v44.5c0,7.3,3.1,12.8,9.3,16.5c6.2,3.7,13,5.5,20.3,5.5c7.3,0,14.1-1.8,20.3-5.5
		c6.2-3.7,9.3-9.2,9.3-16.5v-44.5c0-4.8-2.9-8.6-8.7-11.5c-5.8-2.8-13.1-5.5-22-8.1c-8.9-2.5-18.4-5.3-28.6-8.3
		c-10.2-3-19.7-6.9-28.6-11.9c-8.9-4.9-16.2-11.3-22-19.1c-5.8-7.8-8.7-17.9-8.7-30.3V76.3c0-11,2.5-20.7,7.6-29
		c5.1-8.3,11.8-15.3,20.1-20.8c8.3-5.5,17.8-9.7,28.6-12.5c10.7-2.8,21.6-4.2,32.6-4.2c11,0,21.9,1.4,32.6,4.2
		c10.7,2.8,20.2,7,28.6,12.5c8.3,5.5,15,12.4,20.1,20.7c5.1,8.3,7.6,18,7.6,29v44.5h-59.3V76.2C1741.3,68.9,1738.2,63.4,1732,59.7z"
		/>
</g>
<g>
	<path class="st1" d="M745.7,338.3c6.9,0.9,12.4,2.3,16.6,4.3c4.2,2,7.3,4.4,9.5,7.1c2.1,2.7,3.6,5.7,4.3,8.8c0.7,3.2,1.1,6.2,1.1,9
		c0,4.9-1.1,7.3-3.4,7.3c-0.6,0-3.5-1.4-8.8-4.1c-5.3-2.7-13-4.1-23-4.1h-8.2c-8.6,19.8-17.6,39.3-27.1,58.5
		c-9.5,19.2-19,36.5-28.6,51.8c-9.6,15.3-18.9,27.7-27.9,37.2s-17.3,14.2-24.7,14.2c-5.7,0-11-0.9-15.9-2.6
		c-4.9-1.7-9.1-3.8-12.7-6.2c-3.6-2.4-6.4-4.9-8.6-7.5c-2.1-2.6-3.2-4.9-3.2-6.9c0-2.6,2-3.9,6-3.9c4.9,0,10.7-3.4,17.4-10.3
		c6.7-6.9,14-16.2,21.7-27.9c7.7-11.7,15.8-25.3,24.1-40.6c8.3-15.3,16.5-31.5,24.5-48.4c-10,2.3-19.9,4.8-29.7,7.5
		c-9.7,2.7-18.8,5.7-27.1,8.8c-8.3,3.2-15.7,6.4-22.1,9.7c-6.4,3.3-11.4,6.7-14.8,10.1c-0.9,0.9-1.7,1.3-2.6,1.3
		c-2.9,0-4.3-3.4-4.3-10.3c0-5.2,1.3-11.3,3.9-18.5c2.6-7.2,7.2-14,13.8-20.6c2.9-2.9,7.7-5.6,14.4-8.2c6.7-2.6,14.6-4.9,23.6-7.1
		c9-2.1,18.8-4,29.4-5.6c10.6-1.6,21.1-2.8,31.4-3.7c5.7-13.8,11.1-27.2,16.1-40.4c5-13.2,9.3-25.6,12.9-37.4
		c3.6-11.7,6.4-22.5,8.6-32.2c2.1-9.7,3.2-17.9,3.2-24.5c0-10.9-3-16.3-9-16.3c-14,0-29,3.9-44.7,11.6
		c-15.8,7.7-31.4,17.6-46.9,29.4c-15.5,11.9-30.4,24.9-44.7,39.1c-14.3,14.2-26.9,27.8-37.8,40.8c-10.9,13-19.6,24.7-26,34.8
		c-6.4,10.2-9.7,17.1-9.7,20.9c0,1.4,0.4,2.4,1.1,2.8c0.7,0.4,1.1,0.9,1.1,1.5c0,1.1-1.6,1.7-4.7,1.7c-3.2,0-7.1-0.7-11.8-2.1
		c-4.7-1.4-9.5-3.7-14.2-6.9c-4.7-3.2-8.7-7.2-12-12c-3.3-4.9-4.9-10.7-4.9-17.6c0-6,3.8-14.3,11.4-24.7c7.6-10.5,17.8-21.8,30.7-34
		c12.9-12.2,27.6-24.6,44.1-37.4c16.5-12.7,33.7-24.2,51.8-34.4c18.1-10.2,36-18.6,54-25.1c17.9-6.6,34.6-9.9,50.1-9.9
		c6.6,0,13.9,2.1,21.9,6.2c8,4.2,15.5,9.3,22.4,15.5c6.9,6.2,12.7,13,17.4,20.4c4.7,7.5,7.1,14.5,7.1,21.1c0,2.9-0.9,7.7-2.6,14.6
		c-1.7,6.9-4.2,15.2-7.5,24.9c-3.3,9.7-7.2,20.6-11.6,32.7C755.7,312.5,750.9,325.1,745.7,338.3z"/>
	<path class="st1" d="M952.9,327.1c0.3-0.3,1-0.4,2.1-0.4c2.3,0,4.9,0.9,7.7,2.6c2.9,1.7,4.3,3.6,4.3,5.6c0-0.9-2.1,1.8-6.4,8
		c-4.3,6.2-9.9,14.1-16.8,23.9c-6.9,9.7-14.8,20.4-23.6,31.8c-8.9,11.5-17.9,22.2-27.1,32.2c-9.2,10-18.1,18.4-26.9,25.2
		c-8.7,6.7-16.4,10.1-23,10.1c-6.6,0-12.2-2.3-16.8-6.9c-6.6-0.3-13.1-1.4-19.5-3.4c-6.4-2-12.1-4.9-17-8.6c-5-3.7-9-8.2-12.1-13.5
		c-3.1-5.3-4.7-11.4-4.7-18.3c0-9.5,1.9-20.1,5.6-31.8c3.7-11.7,8.5-23.7,14.4-35.9c5.9-12.2,12.6-24.1,20.2-35.7
		c7.6-11.6,15.2-21.9,22.8-31c7.6-9,14.9-16.3,21.9-21.7c7-5.4,13.1-8.2,18.3-8.2c2.9,0,6.1,0.6,9.7,1.9c3.6,1.3,6.9,2.8,10.1,4.5
		c3.2,1.7,6.1,3.6,8.8,5.6c2.7,2,4.8,3.9,6.2,5.6c3.2,0.6,6.4,1.4,9.9,2.6c3.4,1.1,6.5,2.7,9.2,4.7c2.7,2,5,4.4,6.9,7.3
		c1.9,2.9,2.8,6.4,2.8,10.7c0,6.3-1.7,13.3-5.2,21.1c-3.5,7.7-8.1,15.7-13.8,23.9c-5.8,8.2-12.5,16.1-20.3,23.9
		c-7.8,7.7-16,14.6-24.8,20.6c-8.8,6-17.7,10.9-26.7,14.6c-9.1,3.7-17.9,5.6-26.5,5.6c-1.2,0-2,0.6-2.6,1.9
		c-0.6,1.3-0.9,2.8-1.1,4.5c-0.1,1.7-0.2,3.4-0.2,5.2s0,3,0,3.9c0,6.6,1.4,12,4.3,16.3c2.9,4.3,7.2,6.4,12.9,6.4c6,0,13-2.6,20.9-8
		c7.9-5.3,15.9-12,24.1-20c8.2-8,16.3-16.8,24.5-26.4c8.2-9.6,15.5-18.6,22.1-27.1c6.6-8.5,12.1-15.8,16.6-21.9
		C948.6,332.3,951.5,328.5,952.9,327.1z M896.2,281.1c-5.7,4.9-11.9,11.3-18.5,19.1c-6.6,7.9-13.1,16.6-19.6,26.2
		c-6.4,9.6-12.5,19.6-18.1,29.9c-5.6,10.3-10.1,20.4-13.5,30.1c7.2-3.4,14.9-8.7,23.2-15.9c8.3-7.2,16-15.2,23.2-24.1
		c7.2-8.9,13-18.2,17.6-27.9c4.6-9.7,6.9-18.8,6.9-27.1C897.5,288,897,284.5,896.2,281.1z"/>
	<path class="st1" d="M1100,327.1c0.3-0.3,1-0.4,2.1-0.4c2.3,0,4.9,0.9,7.7,2.6c2.9,1.7,4.3,3.6,4.3,5.6c0-0.9-2.1,1.8-6.4,8
		c-4.3,6.2-9.9,14.1-16.8,23.9c-6.9,9.7-14.8,20.4-23.6,31.8c-8.9,11.5-17.9,22.2-27.1,32.2c-9.2,10-18.1,18.4-26.9,25.2
		c-8.7,6.7-16.4,10.1-23,10.1c-6.6,0-12.2-2.3-16.8-6.9c-6.6-0.3-13.1-1.4-19.5-3.4c-6.4-2-12.1-4.9-17-8.6c-5-3.7-9-8.2-12.1-13.5
		c-3.1-5.3-4.7-11.4-4.7-18.3c0-9.5,1.9-20.1,5.6-31.8c3.7-11.7,8.5-23.7,14.4-35.9c5.9-12.2,12.6-24.1,20.2-35.7
		c7.6-11.6,15.2-21.9,22.8-31c7.6-9,14.9-16.3,21.9-21.7c7-5.4,13.1-8.2,18.3-8.2c2.9,0,6.1,0.6,9.7,1.9c3.6,1.3,6.9,2.8,10.1,4.5
		c3.2,1.7,6.1,3.6,8.8,5.6c2.7,2,4.8,3.9,6.2,5.6c3.2,0.6,6.4,1.4,9.9,2.6c3.4,1.1,6.5,2.7,9.2,4.7c2.7,2,5,4.4,6.9,7.3
		c1.9,2.9,2.8,6.4,2.8,10.7c0,6.3-1.7,13.3-5.2,21.1c-3.5,7.7-8.1,15.7-13.8,23.9c-5.8,8.2-12.5,16.1-20.3,23.9
		c-7.8,7.7-16,14.6-24.8,20.6c-8.8,6-17.7,10.9-26.7,14.6c-9.1,3.7-17.9,5.6-26.5,5.6c-1.2,0-2,0.6-2.6,1.9
		c-0.6,1.3-0.9,2.8-1.1,4.5c-0.1,1.7-0.2,3.4-0.2,5.2s0,3,0,3.9c0,6.6,1.4,12,4.3,16.3c2.9,4.3,7.2,6.4,12.9,6.4c6,0,13-2.6,20.9-8
		c7.9-5.3,15.9-12,24.1-20c8.2-8,16.3-16.8,24.5-26.4c8.2-9.6,15.5-18.6,22.1-27.1c6.6-8.5,12.1-15.8,16.6-21.9
		C1095.6,332.3,1098.5,328.5,1100,327.1z M1043.2,281.1c-5.7,4.9-11.9,11.3-18.5,19.1c-6.6,7.9-13.1,16.6-19.6,26.2
		c-6.4,9.6-12.5,19.6-18.1,29.9c-5.6,10.3-10.1,20.4-13.5,30.1c7.2-3.4,14.9-8.7,23.2-15.9c8.3-7.2,16-15.2,23.2-24.1
		c7.2-8.9,13-18.2,17.6-27.9c4.6-9.7,6.9-18.8,6.9-27.1C1044.5,288,1044.1,284.5,1043.2,281.1z"/>
	<path class="st1" d="M1292.5,146.5c2-2,5-3,9-3c3.7,0,7.7,0.8,12,2.4c4.3,1.6,8.4,3.4,12.3,5.6s7.1,4.4,9.7,6.7
		c2.6,2.3,3.9,4.2,3.9,5.6c0,0.6-0.1,1-0.4,1.3c-0.9,0.9-3.4,5.4-7.7,13.5s-9.7,18.6-16.1,31.3c-6.4,12.7-13.6,27.2-21.5,43.4
		c-7.9,16.2-15.8,32.8-23.9,50c-8,17.2-15.8,34.1-23.4,50.9c-7.6,16.7-14.4,32.1-20.4,45.9c-6,13.9-10.8,25.8-14.4,35.6
		c-3.6,9.9-5.4,16.4-5.4,19.5c0,1.1,0.3,1.7,0.9,1.7c3.2,0,7.4-3,12.9-9c5.4-6,11.5-13.6,18.1-22.8c6.6-9.2,13.3-19.2,20.2-30.1
		c6.9-10.9,13.3-21.1,19.3-30.7c6-9.6,11.2-17.9,15.7-24.9c4.4-7,7.4-11.2,8.8-12.7c0.6-0.6,1.4-0.9,2.6-0.9c2.3,0,4.8,0.9,7.5,2.8
		c2.7,1.9,4.1,3.8,4.1,5.8c0,0.3-0.3,1-0.9,2.1c-1.7,1.4-4.9,6.2-9.7,14.2c-4.7,8-10.5,17.6-17.4,28.8
		c-6.9,11.2-14.4,23.1-22.6,35.7c-8.2,12.6-16.5,24.3-24.9,35.1c-8.5,10.8-16.8,19.7-24.9,26.9c-8.2,7.1-15.4,10.7-21.7,10.7
		c-3.7,0-8.3-1-13.8-3c-5.4-2-10.7-4.6-15.9-7.7c-5.2-3.2-9.5-6.7-13.1-10.7c-3.6-4-5.4-8.2-5.4-12.5c0-1.7,1.5-6.3,4.5-13.8
		c3-7.4,7.1-16.8,12.3-27.9c-6,7.2-12.1,14-18.3,20.4c-6.2,6.4-12.2,12.2-18.1,17.2c-5.9,5-11.3,9-16.3,11.8
		c-5,2.9-9.5,4.3-13.5,4.3c-5.4,0-10.7-1.1-15.9-3.4c-5.2-2.3-9.7-5.2-13.5-8.6c-3.9-3.4-6.9-7.2-9.2-11.4c-2.3-4.2-3.4-8-3.4-11.4
		c0-6.6,1.9-15.6,5.8-27.1c3.9-11.5,9-23.9,15.5-37.4c6.4-13.5,13.7-27,21.7-40.6c8-13.6,16.2-26,24.5-37.2
		c8.3-11.2,16.3-20.3,24.1-27.3c7.7-7,14.6-10.5,20.6-10.5c6,0,11.7,1.3,17.2,3.9c5.4,2.6,10.5,5.8,15,9.7c4.6,3.9,8.7,8,12.5,12.5
		c3.7,4.4,6.9,8.5,9.5,12.3c8.6-18.1,17-35.5,25.4-52.2c8.3-16.8,15.8-31.7,22.6-44.9c6.7-13.2,12.3-23.9,16.6-32.2
		C1289.5,151.5,1292,147.1,1292.5,146.5z M1106.8,434.1c1.4,0,4.4-2.2,8.8-6.7c4.4-4.4,9.8-10.2,16.1-17.4
		c6.3-7.2,13.1-15.2,20.4-24.1c7.3-8.9,14.5-17.6,21.5-26.2c7-8.6,13.5-16.7,19.6-24.3c6-7.6,10.7-13.7,14.2-18.3
		c0.6-1.7,1.3-3.4,2.1-4.9c0.9-1.6,1.6-3.1,2.1-4.5c-0.9-1.4-2.2-3.4-4.1-6c-1.9-2.6-4-5.1-6.4-7.5c-2.4-2.4-4.9-4.6-7.3-6.4
		c-2.4-1.9-4.7-2.8-6.7-2.8c-2.3,0-5.9,3.2-10.7,9.7c-4.9,6.4-10.3,14.5-16.3,24.3c-6,9.7-12.3,20.6-18.7,32.5
		c-6.4,11.9-12.3,23.3-17.6,34.2c-5.3,10.9-9.7,20.6-13.1,29c-3.4,8.5-5.2,14.3-5.2,17.4C1105.5,433.4,1106,434.1,1106.8,434.1z"/>
</g>
</svg>
